<?xml version="1.0" encoding="UTF-8"?>
<svg xmlns="http://www.w3.org/2000/svg" xmlns:xlink="http://www.w3.org/1999/xlink" width="128px" height="128px" viewBox="0 0 128 128" version="1.1">
<g id="surface1">
<path style=" stroke:none;fill-rule:nonzero;fill:rgb(0%,0%,0%);fill-opacity:1;" d="M 94.65625 52.367188 C 93.023438 42.78125 91.238281 32.367188 90.695312 29.40625 C 89.367188 22.179688 79.851562 18.140625 72.78125 23.347656 C 69.074219 26.082031 65.757812 26.277344 64 26.277344 C 62.242188 26.277344 60.292969 26.667969 55.21875 23.347656 C 47.871094 18.542969 38.632812 22.179688 37.304688 29.40625 C 36.761719 32.367188 34.976562 42.78125 33.34375 52.367188 C 13.476562 54.855469 0 59.695312 0 65.253906 C 0 73.363281 28.65625 79.933594 64 79.933594 C 99.347656 79.933594 128 73.363281 128 65.253906 C 128 59.695312 114.523438 54.855469 94.65625 52.367188 Z M 94.65625 52.367188 "/>
<path style=" stroke:none;fill-rule:nonzero;fill:rgb(0%,0%,0%);fill-opacity:1;" d="M 27.28125 82.613281 L 29.167969 104.242188 C 39.058594 105.921875 49.101562 106.796875 59.09375 107.011719 L 64 100.320312 L 68.90625 107.011719 C 78.898438 106.796875 88.941406 105.921875 98.832031 104.242188 L 100.71875 82.613281 C 88.625 84.953125 76.242188 85.988281 64 85.988281 C 51.753906 85.988281 39.378906 84.953125 27.28125 82.613281 Z M 46.671875 100.5 C 38.304688 100.105469 37.78125 90.058594 37.78125 90.058594 L 56.5625 93.726562 C 56.5625 93.726562 55.039062 100.898438 46.671875 100.5 Z M 90.21875 90.058594 C 90.21875 90.058594 89.695312 100.105469 81.328125 100.5 C 72.960938 100.898438 71.4375 93.726562 71.4375 93.726562 Z M 90.21875 90.058594 "/>
</g>
</svg>
